<?xml version="1.0" standalone="no"?>
<!DOCTYPE svg PUBLIC "-//W3C//DTD SVG 20010904//EN"
 "http://www.w3.org/TR/2001/REC-SVG-20010904/DTD/svg10.dtd">
<svg version="1.0" xmlns="http://www.w3.org/2000/svg"
 width="895.000000pt" height="895.000000pt" viewBox="0 0 895.000000 895.000000"
 preserveAspectRatio="xMidYMid meet">
<metadata>
Created by potrace 1.11, written by Peter Selinger 2001-2013
</metadata>
<g transform="translate(0.000000,895.000000) scale(0.100000,-0.100000)"
fill="#000000" stroke="none">
<path d="M4493 8245 c-49 -90 -52 -102 -58 -188 -23 -325 -26 -501 -10 -587 7
-41 16 -93 19 -115 4 -23 8 -50 10 -60 2 -11 7 -45 12 -75 4 -30 8 -57 9 -60
1 -3 5 -30 9 -60 7 -44 110 -317 191 -505 7 -16 23 -55 35 -86 l22 -56 42 5
c22 2 43 6 44 7 5 4 9 183 27 1130 3 149 7 315 10 370 3 88 6 119 20 212 5 32
-67 110 -108 118 -18 3 -59 12 -92 20 -33 8 -76 17 -95 20 l-35 6 -52 -96z"/>
<path d="M7790 6249 c-19 -5 -44 -10 -55 -13 -61 -13 -233 -58 -251 -65 -11
-5 -101 -62 -200 -127 -133 -88 -229 -142 -369 -208 -170 -80 -212 -105 -400
-239 -115 -83 -232 -166 -260 -185 -110 -78 -231 -165 -247 -179 -15 -14 -10
-21 67 -84 84 -69 85 -70 132 -64 26 4 64 10 83 15 19 5 53 11 75 14 75 10
100 17 260 75 179 65 179 65 327 86 39 6 73 27 215 131 92 68 179 132 192 141
49 35 573 423 580 429 4 3 -65 209 -80 236 -5 10 -9 25 -9 33 0 17 -8 17 -60
4z"/>
<path d="M1648 5835 c-2 -1 -21 -5 -43 -8 -143 -21 -196 -28 -245 -37 -30 -5
-73 -12 -95 -15 -23 -3 -52 -7 -65 -10 -13 -3 -42 -7 -65 -10 -144 -21 -219
-36 -225 -45 -3 -6 -7 -29 -8 -53 l-2 -42 133 -91 c129 -89 137 -93 372 -179
132 -47 249 -91 260 -96 22 -9 55 -16 125 -25 25 -3 63 -9 85 -14 22 -5 58
-11 80 -14 23 -4 52 -8 65 -11 13 -3 42 -7 65 -11 22 -3 63 -10 90 -15 130
-25 174 -26 722 -19 l133 2 30 38 31 39 -63 50 c-43 35 -154 96 -356 196 -284
140 -302 147 -630 255 -308 102 -384 124 -394 115z"/>
<path d="M3871 5691 l-234 -59 -60 -63 c-169 -182 -233 -252 -238 -262 -4 -7
-10 -52 -14 -101 -4 -50 -8 -97 -10 -106 -2 -9 -6 -54 -10 -101 -3 -46 -8 -96
-11 -111 -2 -15 3 -57 12 -95 9 -37 18 -77 20 -88 23 -118 41 -170 108 -309
42 -87 76 -160 76 -161 0 -2 34 -74 76 -161 42 -88 95 -199 119 -249 33 -72
52 -98 91 -130 62 -50 64 -52 97 -133 25 -61 33 -70 79 -95 28 -15 127 -70
219 -123 l170 -95 137 -4 c256 -7 447 -6 517 4 39 6 95 13 125 16 30 3 71 7
90 10 19 3 53 7 75 9 22 3 58 8 80 11 22 3 65 7 95 10 30 3 65 7 77 9 12 3 53
8 90 11 74 8 62 1 230 135 77 61 82 68 93 118 6 29 29 111 50 182 l38 130 -13
77 c-8 43 -16 98 -20 123 -3 25 -8 52 -10 60 -2 8 -6 31 -9 50 -6 40 -33 193
-41 230 -3 14 -12 63 -20 110 -8 47 -17 96 -20 110 -7 34 -13 67 -20 121 -4
26 -16 57 -29 70 -11 13 -52 60 -90 104 -80 94 -158 183 -203 234 -18 20 -63
73 -100 118 -37 44 -79 87 -93 95 -14 7 -59 31 -100 54 -105 57 -328 175 -370
196 -19 9 -60 19 -90 23 -30 3 -71 7 -90 10 -19 2 -57 7 -85 10 -27 4 -61 8
-75 10 -14 2 -47 6 -75 10 -27 3 -66 8 -85 10 -19 2 -60 7 -90 11 -30 3 -63 8
-74 10 -10 2 -48 6 -85 8 -57 5 -97 -2 -300 -53z m309 -487 c25 -3 59 -8 76
-9 18 -2 68 -9 113 -15 44 -6 95 -13 113 -15 18 -2 49 -6 68 -9 19 -3 55 -8
80 -11 51 -6 111 -14 154 -21 26 -4 55 -19 174 -87 47 -26 61 -46 218 -297
l90 -145 59 -230 c61 -236 68 -291 52 -405 -4 -30 -10 -75 -13 -100 -8 -67
-13 -92 -18 -97 -3 -4 -82 -27 -126 -37 -8 -2 -86 -23 -173 -45 l-159 -42
-136 72 c-75 40 -153 81 -172 92 -19 11 -87 47 -150 80 -177 93 -188 101 -218
143 -131 183 -259 386 -332 529 l-87 170 48 174 c27 96 52 178 56 182 5 4 49
37 98 73 68 49 96 64 115 61 14 -2 45 -7 70 -11z"/>
<path d="M7927 4434 c-1 -1 -42 -5 -92 -8 -49 -4 -103 -9 -120 -11 -16 -2 -70
-6 -120 -10 -49 -4 -97 -8 -106 -10 -8 -2 -55 -6 -105 -10 -49 -4 -100 -8
-114 -10 -14 -2 -63 -7 -110 -10 -47 -4 -92 -8 -100 -10 -8 -1 -58 -6 -110
-10 -95 -7 -130 -12 -136 -17 -2 -2 -5 -17 -8 -33 -3 -17 -8 -39 -10 -50 -2
-11 -7 -38 -10 -60 l-7 -40 88 -23 c48 -13 99 -28 113 -32 14 -5 41 -11 60
-14 99 -14 258 -38 280 -41 85 -15 158 -22 310 -30 69 -4 141 -8 160 -10 134
-14 344 -19 655 -16 403 3 377 -2 452 81 l42 46 3 93 3 93 -75 30 c-41 17
-140 50 -219 75 l-144 44 -289 -3 c-159 -2 -290 -4 -291 -4z"/>
<path d="M2004 3264 c-45 -48 -43 -48 -219 -59 -49 -3 -124 -8 -165 -11 -104
-6 -126 -9 -340 -39 -14 -2 -43 -6 -65 -10 -22 -3 -53 -7 -70 -10 -16 -2 -77
-11 -135 -19 -58 -9 -121 -18 -140 -21 -19 -3 -46 -7 -60 -10 -14 -2 -41 -6
-60 -9 -19 -2 -57 -8 -85 -11 -27 -4 -186 -61 -352 -127 -266 -105 -303 -122
-304 -141 0 -12 -2 -79 -5 -149 l-5 -127 73 -53 c40 -30 94 -69 120 -87 l46
-33 254 72 c214 61 415 129 543 186 17 7 161 65 320 129 251 101 369 155 525
242 19 11 68 37 108 58 l72 39 0 118 c0 65 -3 118 -7 117 -5 0 -27 -21 -49
-45z"/>
<path d="M3941 2764 l-95 -33 -115 -139 c-234 -281 -436 -526 -448 -542 -13
-18 -18 -66 -38 -320 -4 -47 -8 -96 -10 -110 -2 -14 -6 -70 -10 -125 -4 -55
-9 -102 -10 -103 -2 -2 12 -17 30 -33 l34 -30 83 22 83 22 123 121 123 121 73
150 c115 235 236 486 256 530 16 34 160 472 160 486 0 2 -24 5 -52 7 -29 1
-62 3 -73 5 -11 2 -63 -12 -114 -29z"/>
<path d="M5830 2783 c-43 -50 -59 -83 -65 -133 -3 -30 -8 -66 -10 -80 -28
-186 -28 -171 -9 -910 l6 -235 33 -33 32 -32 3 -133 c3 -196 7 -298 11 -301 2
-1 27 -18 54 -38 l50 -36 76 28 76 27 110 -146 110 -146 44 1 c24 0 61 2 81 4
l38 4 -6 286 c-5 313 -8 328 -81 529 -19 53 -49 139 -66 191 -18 54 -107 245
-205 440 l-173 345 5 157 5 156 -43 36 c-51 41 -56 42 -76 19z"/>
</g>
</svg>
